<svg width="48" height="48" viewBox="0 0 48 48" fill="none" xmlns="http://www.w3.org/2000/svg">
<path fill-rule="evenodd" clip-rule="evenodd" d="M27.6364 16.3636C28.038 16.3636 28.3637 16.038 28.3637 15.6364L30.5454 15.6366C30.9471 15.6366 31.2727 15.9622 31.2727 16.3639V33.8182C31.2727 34.2199 30.9471 34.5455 30.5454 34.5455H17.4547C17.053 34.5455 16.7274 34.2199 16.7274 33.8182V16.3639C16.7274 15.9622 17.053 15.6366 17.4547 15.6366L19.6365 15.6364C19.6365 16.038 19.9621 16.3636 20.3637 16.3636H27.6364ZM28.1506 22.1223C28.4347 22.4063 28.4347 22.8668 28.1506 23.1508L23.7871 27.5144C23.6507 27.6508 23.4657 27.7274 23.2728 27.7274C23.0799 27.7274 22.8949 27.6508 22.7585 27.5144L20.5768 25.3326C20.2927 25.0486 20.2927 24.5881 20.5768 24.3041C20.8608 24.02 21.3212 24.02 21.6053 24.3041L23.2728 25.9716L27.1221 22.1223C27.4061 21.8383 27.8666 21.8383 28.1506 22.1223Z" fill="#FF4306"/>
<path d="M28.1506 23.1508C28.4347 22.8668 28.4347 22.4063 28.1506 22.1223C27.8666 21.8383 27.4061 21.8383 27.1221 22.1223L23.2728 25.9716L21.6053 24.3041C21.3212 24.02 20.8608 24.02 20.5768 24.3041C20.2927 24.5881 20.2927 25.0486 20.5768 25.3326L22.7585 27.5144C22.8949 27.6508 23.0799 27.7274 23.2728 27.7274C23.4657 27.7274 23.6507 27.6508 23.7871 27.5144L28.1506 23.1508Z" fill="#161616"/>
<path fill-rule="evenodd" clip-rule="evenodd" d="M26.9091 12.7273C26.9091 12.3256 26.5835 12 26.1818 12H21.8182C21.4166 12 21.0909 12.3256 21.0909 12.7273C21.0909 13.1289 20.7653 13.4545 20.3637 13.4545C19.962 13.4545 19.6364 13.7801 19.6364 14.1818L17.4546 14.1821C16.2496 14.1821 15.2728 15.1589 15.2728 16.3639V33.8182C15.2728 35.0232 16.2496 36 17.4546 36H30.5454C31.7504 36 32.7272 35.0232 32.7272 33.8182V16.3639C32.7272 15.1589 31.7504 14.1821 30.5454 14.1821L28.3636 14.1818C28.3636 13.7801 28.038 13.4545 27.6363 13.4545C27.2347 13.4545 26.9091 13.1289 26.9091 12.7273ZM28.3637 15.6364C28.3637 16.038 28.038 16.3636 27.6364 16.3636H20.3637C19.9621 16.3636 19.6365 16.038 19.6365 15.6364L17.4547 15.6366C17.053 15.6366 16.7274 15.9622 16.7274 16.3639V33.8182C16.7274 34.2199 17.053 34.5455 17.4547 34.5455H30.5454C30.9471 34.5455 31.2727 34.2199 31.2727 33.8182V16.3639C31.2727 15.9622 30.9471 15.6366 30.5454 15.6366L28.3637 15.6364Z" fill="#161616"/>
</svg>
