<svg width="48" height="48" viewBox="0 0 48 48" fill="none" xmlns="http://www.w3.org/2000/svg">
<path d="M25.5 15C25.5 14.1716 26.1716 13.5 27 13.5H33C33.8284 13.5 34.5 14.1716 34.5 15V33C34.5 33.8284 33.8284 34.5 33 34.5H27C26.1716 34.5 25.5 33.8284 25.5 33V15Z" fill="#FF4306"/>
<path d="M27 15.75C27 15.3358 27.3358 15 27.75 15H32.25C32.6642 15 33 15.3358 33 15.75C33 16.1642 32.6642 16.5 32.25 16.5H27.75C27.3358 16.5 27 16.1642 27 15.75Z" fill="#161616"/>
<path d="M27 18.75C27 18.3358 27.3358 18 27.75 18H32.25C32.6642 18 33 18.3358 33 18.75C33 19.1642 32.6642 19.5 32.25 19.5H27.75C27.3358 19.5 27 19.1642 27 18.75Z" fill="#161616"/>
<path fill-rule="evenodd" clip-rule="evenodd" d="M27 12C25.3433 12 24 13.3431 24 15V33C24 34.6569 25.3433 36 27 36H33C34.6567 36 36 34.6569 36 33V15C36 13.3431 34.6567 12 33 12H27ZM27 13.5C26.1716 13.5 25.5 14.1716 25.5 15V33C25.5 33.8284 26.1716 34.5 27 34.5H33C33.8284 34.5 34.5 33.8284 34.5 33V15C34.5 14.1716 33.8284 13.5 33 13.5H27Z" fill="#161616"/>
<path d="M22.5 15H14.25C13.0074 15 12 16.0074 12 17.25V27.75C12 28.9926 13.0074 30 14.25 30H21V33H20.25C19.8358 33 19.5 33.3358 19.5 33.75C19.5 34.1642 19.8358 34.5 20.25 34.5H22.5V28.5H14.25C13.8358 28.5 13.5 28.1642 13.5 27.75V17.25C13.5 16.8358 13.8358 16.5 14.25 16.5H22.5V15Z" fill="#161616"/>
<path d="M27 31.5C27 30.6716 27.6716 30 28.5 30C29.3284 30 30 30.6716 30 31.5C30 32.3284 29.3284 33 28.5 33C27.6716 33 27 32.3284 27 31.5Z" fill="#161616"/>
</svg>
