<svg width="48" height="48" viewBox="0 0 48 48" fill="none" xmlns="http://www.w3.org/2000/svg">
<path fill-rule="evenodd" clip-rule="evenodd" d="M25.2559 14.4391C24.8868 13.187 23.1132 13.187 22.7441 14.4391L22.6033 14.9168C22.0973 16.6335 20.1365 17.4457 18.5648 16.5896L18.1275 16.3514C16.9811 15.7269 15.7269 16.9811 16.3514 18.1275L16.5896 18.5648C17.4457 20.1365 16.6335 22.0973 14.9168 22.6033L14.4391 22.7441C13.187 23.1132 13.187 24.8868 14.4391 25.2559L14.9168 25.3967C16.6335 25.9027 17.4457 27.8635 16.5896 29.4352L16.3514 29.8725C15.7269 31.0189 16.9811 32.2731 18.1275 31.6486L18.5648 31.4104C20.1365 30.5543 22.0973 31.3665 22.6033 33.0832L22.7441 33.5609C23.1132 34.8131 24.8868 34.8131 25.2559 33.5609L25.3967 33.0832C25.9027 31.3665 27.8635 30.5543 29.4352 31.4104L29.8725 31.6486C31.0189 32.2731 32.2731 31.0189 31.6486 29.8725L31.4104 29.4352C30.5543 27.8635 31.3665 25.9027 33.0832 25.3967L33.5609 25.2559C34.8131 24.8868 34.8131 23.1132 33.5609 22.7441L33.0832 22.6033C31.3665 22.0973 30.5543 20.1365 31.4104 18.5648L31.6486 18.1275C32.2731 16.9811 31.0189 15.7269 29.8725 16.3514L29.4352 16.5896C27.8635 17.4457 25.9027 16.6335 25.3967 14.9168L25.2559 14.4391ZM19.1314 24C19.1314 21.3111 21.3112 19.1313 24.0001 19.1313C26.6889 19.1313 28.8687 21.3111 28.8687 24C28.8687 26.6888 26.6889 28.8686 24.0001 28.8686C21.3112 28.8686 19.1314 26.6888 19.1314 24Z" fill="#FF4306"/>
<path d="M24.0001 19.1313C21.3112 19.1313 19.1314 21.3111 19.1314 24C19.1314 26.6888 21.3112 28.8686 24.0001 28.8686C26.6889 28.8686 28.8687 26.6888 28.8687 24C28.8687 21.3111 26.6889 19.1313 24.0001 19.1313ZM20.6314 24C20.6314 22.1395 22.1396 20.6313 24.0001 20.6313C25.8605 20.6313 27.3687 22.1395 27.3687 24C27.3687 25.8604 25.8605 27.3686 24.0001 27.3686C22.1396 27.3686 20.6314 25.8604 20.6314 24Z" fill="#161616"/>
<path d="M26.6947 14.0151C25.9028 11.3283 22.0972 11.3283 21.3053 14.0151L21.1645 14.4927C20.9287 15.2928 20.0148 15.6713 19.2823 15.2723L18.845 15.0341C16.3852 13.6943 13.6943 16.3853 15.0341 18.845L15.2723 19.2823C15.6713 20.0148 15.2928 20.9287 14.4927 21.1645L14.0151 21.3053C11.3283 22.0972 11.3283 25.9028 14.0151 26.6947L14.4927 26.8355C15.2928 27.0713 15.6713 27.9852 15.2723 28.7177L15.0341 29.155C13.6943 31.6148 16.3852 34.3057 18.845 32.9659L19.2823 32.7277C20.0148 32.3287 20.9287 32.7072 21.1645 33.5073L21.3053 33.9849C22.0972 36.6717 25.9028 36.6717 26.6947 33.9849L26.8355 33.5073C27.0713 32.7072 27.9852 32.3287 28.7177 32.7277L29.155 32.9659C31.6148 34.3057 34.3057 31.6148 32.9659 29.155L32.7277 28.7177C32.3287 27.9852 32.7072 27.0713 33.5073 26.8355L33.9849 26.6947C36.6717 25.9028 36.6717 22.0972 33.9849 21.3053L33.5073 21.1645C32.7072 20.9287 32.3287 20.0148 32.7277 19.2823L32.9659 18.845C34.3057 16.3852 31.6147 13.6943 29.155 15.0341L28.7177 15.2723C27.9852 15.6713 27.0713 15.2928 26.8355 14.4927L26.6947 14.0151ZM22.7441 14.4391C23.1132 13.187 24.8868 13.187 25.2559 14.4391L25.3967 14.9168C25.9027 16.6335 27.8635 17.4457 29.4352 16.5896L29.8725 16.3514C31.0189 15.7269 32.2731 16.9811 31.6486 18.1275L31.4104 18.5648C30.5543 20.1365 31.3665 22.0973 33.0832 22.6033L33.5609 22.7441C34.8131 23.1132 34.8131 24.8868 33.5609 25.2559L33.0832 25.3967C31.3665 25.9027 30.5543 27.8635 31.4104 29.4352L31.6486 29.8725C32.2731 31.0189 31.0189 32.2731 29.8725 31.6486L29.4352 31.4104C27.8635 30.5543 25.9027 31.3665 25.3967 33.0832L25.2559 33.5609C24.8868 34.8131 23.1132 34.8131 22.7441 33.5609L22.6033 33.0832C22.0973 31.3665 20.1365 30.5543 18.5648 31.4104L18.1275 31.6486C16.9811 32.2731 15.7269 31.0189 16.3514 29.8725L16.5896 29.4352C17.4457 27.8635 16.6335 25.9027 14.9168 25.3967L14.4391 25.2559C13.187 24.8868 13.187 23.1132 14.4391 22.7441L14.9168 22.6033C16.6335 22.0973 17.4457 20.1365 16.5896 18.5648L16.3514 18.1275C15.7269 16.9811 16.9811 15.7269 18.1275 16.3514L18.5648 16.5896C20.1365 17.4457 22.0973 16.6335 22.6033 14.9168L22.7441 14.4391Z" fill="#161616"/>
</svg>
