<svg width="48" height="48" viewBox="0 0 48 48" fill="none" xmlns="http://www.w3.org/2000/svg">
<path d="M16 12C14.3431 12 13 13.3431 13 15V33C13 34.6569 14.3431 36 16 36H28C29.6569 36 31 34.6569 31 33V30.0607L29.5 31.5607V33C29.5 33.8284 28.8284 34.5 28 34.5H16C15.1716 34.5 14.5 33.8284 14.5 33V15C14.5 14.1716 15.1716 13.5 16 13.5H28C28.8284 13.5 29.5 14.1716 29.5 15V23.4393L30.7197 22.2197C30.7995 22.1398 30.8955 22.0798 31 22.0429V15C31 13.3431 29.6569 12 28 12H16Z" fill="#161616"/>
<path d="M17.5 18C17.0858 18 16.75 18.3358 16.75 18.75C16.75 19.1642 17.0858 19.5 17.5 19.5H26.5C26.9142 19.5 27.25 19.1642 27.25 18.75C27.25 18.3358 26.9142 18 26.5 18H17.5Z" fill="#161616"/>
<path d="M16.75 21.75C16.75 21.3358 17.0858 21 17.5 21H26.5C26.9142 21 27.25 21.3358 27.25 21.75C27.25 22.1642 26.9142 22.5 26.5 22.5H17.5C17.0858 22.5 16.75 22.1642 16.75 21.75Z" fill="#161616"/>
<path d="M16.75 24.75C16.75 24.3358 17.0858 24 17.5 24H26.5C26.9142 24 27.25 24.3358 27.25 24.75C27.25 25.1642 26.9142 25.5 26.5 25.5H17.5C17.0858 25.5 16.75 25.1642 16.75 24.75Z" fill="#161616"/>
<path d="M17.5 27C17.0858 27 16.75 27.3358 16.75 27.75C16.75 28.1642 17.0858 28.5 17.5 28.5H22C22.4142 28.5 22.75 28.1642 22.75 27.75C22.75 27.3358 22.4142 27 22 27H17.5Z" fill="#161616"/>
<path d="M32.4243 26.515L30.4905 24.5701L31.25 23.8107L33.1893 25.75L32.4243 26.515Z" fill="#FF4306"/>
<path d="M29.4299 25.6308L31.3636 27.5757L27.4393 31.5H25.5V29.5607L29.4299 25.6308Z" fill="#FF4306"/>
<path fill-rule="evenodd" clip-rule="evenodd" d="M31.25 22C31.4489 22 31.6397 22.079 31.7803 22.2197L34.7803 25.2197C35.0732 25.5126 35.0732 25.9874 34.7803 26.2803L28.2803 32.7803C28.1397 32.921 27.9489 33 27.75 33H24.75C24.3358 33 24 32.6642 24 32.25V29.25C24 29.0511 24.079 28.8603 24.2197 28.7197L30.7197 22.2197C30.8603 22.079 31.0511 22 31.25 22ZM30.4905 24.5701L32.4243 26.515L33.1893 25.75L31.25 23.8107L30.4905 24.5701ZM31.3636 27.5757L29.4299 25.6308L25.5 29.5607V31.5H27.4393L31.3636 27.5757Z" fill="#161616"/>
</svg>
