<svg width="48" height="48" viewBox="0 0 48 48" fill="none" xmlns="http://www.w3.org/2000/svg">
<path d="M21.1875 21.75C20.0484 21.75 19.125 20.8266 19.125 19.6875C19.125 19.2733 18.7892 18.9375 18.375 18.9375C17.9608 18.9375 17.625 19.2733 17.625 19.6875C17.625 20.8266 16.7016 21.75 15.5625 21.75C14.4234 21.75 13.5 20.8266 13.5 19.6875V19.3049C13.5 19.1259 13.564 18.9527 13.6806 18.8168L17.595 14.25H30.405L34.3194 18.8168C34.436 18.9527 34.5 19.1259 34.5 19.3049V19.6875C34.5 20.8266 33.5766 21.75 32.4375 21.75C31.2984 21.75 30.375 20.8266 30.375 19.6875C30.375 19.2733 30.0392 18.9375 29.625 18.9375C29.2108 18.9375 28.875 19.2733 28.875 19.6875C28.875 20.8266 27.9516 21.75 26.8125 21.75C25.6734 21.75 24.75 20.8266 24.75 19.6875C24.75 19.2733 24.4142 18.9375 24 18.9375C23.5858 18.9375 23.25 19.2733 23.25 19.6875C23.25 20.8266 22.3266 21.75 21.1875 21.75Z" fill="#FF4306"/>
<path d="M16.4561 13.2738C16.741 12.9413 17.1571 12.75 17.595 12.75H30.405C30.8429 12.75 31.259 12.9413 31.5439 13.2738L35.4583 17.8406C35.8079 18.2484 36 18.7678 36 19.3049V19.6875C36 21.655 34.405 23.25 32.4375 23.25C31.2943 23.25 30.2769 22.7115 29.625 21.8744C28.9731 22.7115 27.9557 23.25 26.8125 23.25C25.6693 23.25 24.6519 22.7115 24 21.8744C23.3481 22.7115 22.3307 23.25 21.1875 23.25C20.0443 23.25 19.0269 22.7115 18.375 21.8744C17.7231 22.7115 16.7057 23.25 15.5625 23.25C13.595 23.25 12 21.655 12 19.6875V19.3049C12 18.7678 12.1921 18.2484 12.5417 17.8406L16.4561 13.2738ZM19.125 19.6875C19.125 20.8266 20.0484 21.75 21.1875 21.75C22.3266 21.75 23.25 20.8266 23.25 19.6875C23.25 19.2733 23.5858 18.9375 24 18.9375C24.4142 18.9375 24.75 19.2733 24.75 19.6875C24.75 20.8266 25.6734 21.75 26.8125 21.75C27.9516 21.75 28.875 20.8266 28.875 19.6875C28.875 19.2733 29.2108 18.9375 29.625 18.9375C30.0392 18.9375 30.375 19.2733 30.375 19.6875C30.375 20.8266 31.2984 21.75 32.4375 21.75C33.5766 21.75 34.5 20.8266 34.5 19.6875V19.3049C34.5 19.1259 34.436 18.9527 34.3194 18.8168L30.405 14.25H17.595L13.6806 18.8168C13.564 18.9527 13.5 19.1259 13.5 19.3049V19.6875C13.5 20.8266 14.4234 21.75 15.5625 21.75C16.7016 21.75 17.625 20.8266 17.625 19.6875C17.625 19.2733 17.9608 18.9375 18.375 18.9375C18.7892 18.9375 19.125 19.2733 19.125 19.6875ZM14.25 24C14.6642 24 15 24.3358 15 24.75V33.75H16.5V26.25C16.5 25.4216 17.1716 24.75 18 24.75H22.5C23.3284 24.75 24 25.4216 24 26.25V33.75H33V24.75C33 24.3358 33.3358 24 33.75 24C34.1642 24 34.5 24.3358 34.5 24.75V33.75H35.25C35.6642 33.75 36 34.0858 36 34.5C36 34.9142 35.6642 35.25 35.25 35.25H12.75C12.3358 35.25 12 34.9142 12 34.5C12 34.0858 12.3358 33.75 12.75 33.75H13.5V24.75C13.5 24.3358 13.8358 24 14.25 24ZM18 33.75H22.5V26.25H18V33.75ZM25.5 26.25C25.5 25.4216 26.1716 24.75 27 24.75H30C30.8284 24.75 31.5 25.4216 31.5 26.25V30.75C31.5 31.5784 30.8284 32.25 30 32.25H27C26.1716 32.25 25.5 31.5784 25.5 30.75V26.25ZM30 26.25H27V30.75H30V26.25Z" fill="#161616"/>
</svg>
