<svg width="48" height="48" viewBox="0 0 48 48" fill="none" xmlns="http://www.w3.org/2000/svg">
<path fill-rule="evenodd" clip-rule="evenodd" d="M34.5 15C34.5 14.1716 33.8284 13.5 33 13.5H15C14.1716 13.5 13.5 14.1716 13.5 15V33C13.5 33.8284 14.1716 34.5 15 34.5H33C33.8284 34.5 34.5 33.8284 34.5 33V15ZM20.2445 21.0491C20.0399 21.0491 19.8713 20.8835 19.8827 20.6792C20.0245 18.1359 22.1075 17.25 24.0081 17.25C26.1028 17.25 28.0166 18.345 28.0166 20.6111C28.0166 22.2297 27.0645 23.001 26.1504 23.696C25.0459 24.5339 24.6365 24.8481 24.6365 25.9241V26.0823C24.6365 26.2894 24.4686 26.4573 24.2615 26.4573H23.045C22.8399 26.4573 22.6728 26.2925 22.67 26.0874L22.6656 25.7622C22.6084 24.3721 23.4082 23.5151 24.4175 22.782C25.303 22.1155 25.8648 21.6775 25.8648 20.7253C25.8648 19.4875 24.9221 18.9734 23.8938 18.9734C22.6898 18.9734 22.0143 19.6908 21.8808 20.675C21.853 20.8802 21.6883 21.0491 21.4812 21.0491H20.2445ZM23.732 30.7134C22.856 30.7134 22.218 30.123 22.218 29.3232C22.218 28.4949 22.856 27.9141 23.732 27.9141C24.646 27.9141 25.2744 28.4949 25.2744 29.3232C25.2744 30.123 24.646 30.7134 23.732 30.7134Z" fill="#FF4306"/>
<path d="M33 13.5C33.8284 13.5 34.5 14.1716 34.5 15V33C34.5 33.8284 33.8284 34.5 33 34.5H15C14.1716 34.5 13.5 33.8284 13.5 33V15C13.5 14.1716 14.1716 13.5 15 13.5H33ZM15 12C13.3431 12 12 13.3431 12 15V33C12 34.6569 13.3431 36 15 36H33C34.6569 36 36 34.6569 36 33V15C36 13.3431 34.6569 12 33 12H15Z" fill="#161616"/>
<path d="M19.8827 20.6792C19.8713 20.8835 20.0399 21.0491 20.2445 21.0491H21.4812C21.6883 21.0491 21.853 20.8802 21.8808 20.675C22.0143 19.6908 22.6898 18.9734 23.8938 18.9734C24.9221 18.9734 25.8648 19.4875 25.8648 20.7253C25.8648 21.6775 25.303 22.1155 24.4175 22.782C23.4082 23.5151 22.6084 24.3721 22.6656 25.7622L22.67 26.0874C22.6728 26.2925 22.8399 26.4573 23.045 26.4573H24.2615C24.4686 26.4573 24.6365 26.2894 24.6365 26.0823V25.9241C24.6365 24.8481 25.0459 24.5339 26.1504 23.696C27.0645 23.001 28.0166 22.2297 28.0166 20.6111C28.0166 18.345 26.1028 17.25 24.0081 17.25C22.1075 17.25 20.0245 18.1359 19.8827 20.6792ZM22.218 29.3232C22.218 30.123 22.856 30.7134 23.732 30.7134C24.646 30.7134 25.2744 30.123 25.2744 29.3232C25.2744 28.4949 24.646 27.9141 23.732 27.9141C22.856 27.9141 22.218 28.4949 22.218 29.3232Z" fill="#161616"/>
</svg>
