<svg width="64" height="108" viewBox="0 0 64 108" fill="none" xmlns="http://www.w3.org/2000/svg">
<rect x="0.5" y="0.5" width="63" height="107" rx="4.5" stroke="#9747FF" stroke-dasharray="10 5"/>
<g clip-path="url(#clip0_460_2037)">
<path fill-rule="evenodd" clip-rule="evenodd" d="M20 23C20 21.3431 21.3431 20 23 20H41C42.6569 20 44 21.3431 44 23V41C44 42.6569 42.6569 44 41 44H23C21.3431 44 20 42.6569 20 41V23ZM42.5 23C42.5 22.1716 41.8284 21.5 41 21.5H23C22.1716 21.5 21.5 22.1716 21.5 23V41C21.5 41.8284 22.1716 42.5 23 42.5H41C41.8284 42.5 42.5 41.8284 42.5 41V23Z" fill="#161616"/>
</g>
<g clip-path="url(#clip1_460_2037)">
<path fill-rule="evenodd" clip-rule="evenodd" d="M20 67C20 65.3431 21.3431 64 23 64H41C42.6569 64 44 65.3431 44 67V85C44 86.6569 42.6569 88 41 88H23C21.3431 88 20 86.6569 20 85V67ZM42.5 67C42.5 66.1716 41.8284 65.5 41 65.5H23C22.1716 65.5 21.5 66.1716 21.5 67V85C21.5 85.8284 22.1716 86.5 23 86.5H41C41.8284 86.5 42.5 85.8284 42.5 85V67Z" fill="#161616"/>
<path d="M38.0615 73.0292C38.4849 72.5887 38.4795 71.8885 38.0454 71.4545C37.6062 71.0152 36.8938 71.0152 36.4546 71.4545C36.4438 71.4651 36.4338 71.4763 36.4246 71.4882L31.2161 78.1251L28.0759 74.9848C27.6365 74.5455 26.9241 74.5455 26.4849 74.9848C26.0454 75.4242 26.0454 76.1365 26.4849 76.5758L30.4546 80.5455C30.8938 80.9848 31.6062 80.9848 32.0454 80.5455C32.0552 80.5357 32.0645 80.5254 32.0732 80.5146L38.0615 73.0292Z" fill="#161616"/>
<path fill-rule="evenodd" clip-rule="evenodd" d="M41 65.5C41.8284 65.5 42.5 66.1716 42.5 67V85C42.5 85.8284 41.8284 86.5 41 86.5H23C22.1716 86.5 21.5 85.8284 21.5 85V67C21.5 66.1716 22.1716 65.5 23 65.5H41ZM38.0615 73.0292C38.4849 72.5887 38.4795 71.8885 38.0454 71.4545C37.6062 71.0152 36.8938 71.0152 36.4546 71.4545C36.4438 71.4651 36.4338 71.4763 36.4246 71.4882L31.2161 78.1251L28.0759 74.9848C27.6365 74.5455 26.9241 74.5455 26.4849 74.9848C26.0454 75.4242 26.0454 76.1365 26.4849 76.5758L30.4546 80.5455C30.8938 80.9848 31.6062 80.9848 32.0454 80.5455C32.0552 80.5357 32.0645 80.5254 32.0732 80.5146L38.0615 73.0292Z" fill="#FF4306"/>
</g>
<defs>
<clipPath id="clip0_460_2037">
<rect width="24" height="24" fill="white" transform="translate(20 20)"/>
</clipPath>
<clipPath id="clip1_460_2037">
<rect width="24" height="24" fill="white" transform="translate(20 64)"/>
</clipPath>
</defs>
</svg>
