<svg width="184" height="48" viewBox="0 0 184 48" fill="none" xmlns="http://www.w3.org/2000/svg">
<rect x="0.5" y="0.5" width="183" height="47" rx="4.5" stroke="#9747FF" stroke-dasharray="10 5"/>
<path d="M18.0001 32.5714V34.2857H30V32.5714C30 30.1869 28.6091 28.1255 26.5905 27.1577C25.6768 26.7196 24.8572 25.8018 24.8572 24.6014V23.3986C24.8572 23.3986 24.5486 23.5714 24.0001 23.5714C23.4515 23.5714 23.1429 23.3986 23.1429 23.3986V24.6014C23.1429 25.8018 22.3233 26.7196 21.4096 27.1577C19.391 28.1255 18.0001 30.1869 18.0001 32.5714Z" fill="#FF4306"/>
<path d="M13.7144 35.1429C13.7144 35.6162 14.0981 36 14.5715 36H33.4286C33.902 36 34.2858 35.6162 34.2858 35.1429C34.2858 34.6695 33.902 34.2857 33.4286 34.2857H31.7143V32.5714C31.7143 29.5027 29.9224 26.8541 27.3317 25.6119C26.8347 25.3736 26.5715 24.9654 26.5715 24.6014V23.3986C26.5715 23.0346 26.8347 22.6264 27.3317 22.3881C29.9224 21.1459 31.7143 18.4973 31.7143 15.4286V13.7143L33.4286 13.7143C33.902 13.7143 34.2857 13.3306 34.2858 12.8572C34.2858 12.3838 33.902 12 33.4286 12L14.5715 12C14.0981 12 13.7144 12.3838 13.7144 12.8571C13.7144 13.3305 14.0981 13.7143 14.5715 13.7143H16.2858V15.4286C16.2858 18.4973 18.0777 21.1459 20.6684 22.3881C21.1654 22.6264 21.4286 23.0346 21.4286 23.3986V24.6014C21.4286 24.9654 21.1654 25.3736 20.6684 25.6119C18.0777 26.8541 16.2858 29.5027 16.2858 32.5714V34.2857H14.5715C14.0981 34.2857 13.7144 34.6695 13.7144 35.1429ZM18.0001 34.2857V32.5714C18.0001 30.1869 19.391 28.1255 21.4096 27.1577C22.3233 26.7196 23.1429 25.8018 23.1429 24.6014V23.3986C23.1429 23.3986 23.4515 23.5714 24.0001 23.5714C24.5486 23.5714 24.8572 23.3986 24.8572 23.3986V24.6014C24.8572 25.8018 25.6768 26.7196 26.5905 27.1577C28.6091 28.1255 30 30.1869 30 32.5714V34.2857H18.0001Z" fill="#161616"/>
<path d="M86.0001 15.4286V13.7143H98V15.4286C98 16.3486 97.793 17.2205 97.4227 18H86.5774C86.2071 17.2205 86.0001 16.3486 86.0001 15.4286Z" fill="#FF4306"/>
<path d="M89.4096 27.1577C90.3233 26.7196 91.1429 25.8018 91.1429 24.6014V30.0356C87.4842 30.3452 86.0001 32.5714 86.0001 32.5714C86.0001 30.1869 87.391 28.1256 89.4096 27.1577Z" fill="#FF4306"/>
<path d="M92.8572 30.0356V24.6014C92.8572 25.8018 93.6768 26.7196 94.5905 27.1577C96.6091 28.1256 98 30.1869 98 32.5714C98 32.5714 96.5159 30.3452 92.8572 30.0356Z" fill="#FF4306"/>
<path d="M82.5715 36C82.0981 36 81.7144 35.6162 81.7144 35.1429C81.7144 34.6695 82.0981 34.2857 82.5715 34.2857H84.2858V32.5714C84.2858 29.5027 86.0777 26.8541 88.6684 25.6119C89.1654 25.3736 89.4286 24.9654 89.4286 24.6014V23.3986C89.4286 23.0346 89.1654 22.6264 88.6684 22.3881C86.0777 21.1459 84.2858 18.4973 84.2858 15.4286V13.7143H82.5715C82.0981 13.7143 81.7144 13.3305 81.7144 12.8571C81.7144 12.3838 82.0981 12 82.5715 12L101.429 12C101.902 12 102.286 12.3838 102.286 12.8572C102.286 13.3306 101.902 13.7143 101.429 13.7143L99.7143 13.7143V15.4286C99.7143 18.4973 97.9224 21.1459 95.3317 22.3881C94.8347 22.6264 94.5715 23.0346 94.5715 23.3986V24.6014C94.5715 24.9654 94.8347 25.3736 95.3317 25.6119C97.9224 26.8541 99.7143 29.5027 99.7143 32.5714V34.2857H101.429C101.902 34.2857 102.286 34.6695 102.286 35.1429C102.286 35.6162 101.902 36 101.429 36H82.5715ZM86.0001 13.7143V15.4286C86.0001 16.3486 86.2071 17.2205 86.5774 18H97.4227C97.793 17.2205 98 16.3486 98 15.4286V13.7143H86.0001ZM91.1429 24.6014C91.1429 25.8018 90.3233 26.7196 89.4096 27.1577C87.391 28.1256 86.0001 30.1869 86.0001 32.5714C86.0001 32.5714 87.4842 30.3452 91.1429 30.0356V24.6014ZM92.8572 24.6014V30.0356C96.5159 30.3452 98 32.5714 98 32.5714C98 30.1869 96.6091 28.1256 94.5905 27.1577C93.6768 26.7196 92.8572 25.8018 92.8572 24.6014Z" fill="#161616"/>
<path d="M154 15.4286V13.7143H166V15.4286C166 17.8131 164.609 19.8744 162.59 20.8423C161.677 21.2804 160.857 22.1982 160.857 23.3986V24.6014C160.857 24.6014 160.549 24.8571 160 24.8571C159.451 24.8571 159.143 24.6014 159.143 24.6014V23.3986C159.143 22.1982 158.323 21.2804 157.41 20.8423C155.391 19.8744 154 17.8131 154 15.4286Z" fill="#FF4306"/>
<path d="M149.714 12.8571C149.714 12.3838 150.098 12 150.571 12H169.429C169.902 12 170.286 12.3838 170.286 12.8571C170.286 13.3305 169.902 13.7143 169.429 13.7143H167.714V15.4286C167.714 18.4973 165.922 21.1459 163.332 22.3881C162.835 22.6264 162.571 23.0346 162.571 23.3986V24.6014C162.571 24.9654 162.835 25.3736 163.332 25.6119C165.922 26.8541 167.714 29.5027 167.714 32.5714V34.2857L169.429 34.2857C169.902 34.2857 170.286 34.6694 170.286 35.1428C170.286 35.6162 169.902 36 169.429 36L150.571 36C150.098 36 149.714 35.6162 149.714 35.1429C149.714 34.6695 150.098 34.2857 150.571 34.2857H152.286V32.5714C152.286 29.5027 154.078 26.8541 156.668 25.6119C157.165 25.3736 157.429 24.9654 157.429 24.6014V23.3986C157.429 23.0346 157.165 22.6264 156.668 22.3881C154.078 21.1459 152.286 18.4973 152.286 15.4286V13.7143H150.571C150.098 13.7143 149.714 13.3305 149.714 12.8571ZM154 13.7143V15.4286C154 17.8131 155.391 19.8744 157.41 20.8423C158.323 21.2804 159.143 22.1982 159.143 23.3986V24.6014C159.143 24.6014 159.451 24.8571 160 24.8571C160.549 24.8571 160.857 24.6014 160.857 24.6014V23.3986C160.857 22.1982 161.677 21.2804 162.59 20.8423C164.609 19.8744 166 17.8131 166 15.4286V13.7143H154Z" fill="#161616"/>
</svg>
