<svg width="48" height="48" viewBox="0 0 48 48" fill="none" xmlns="http://www.w3.org/2000/svg">
<path d="M19.125 29.2567L23.25 26.8996V31.6005L19.125 33.9577V29.2567Z" fill="#FF4306"/>
<path d="M28.875 17.2567V21.9577L24.75 24.3148V19.6139L28.875 17.2567Z" fill="#FF4306"/>
<path d="M30.375 29.2567L34.5 26.8996V31.6005L30.375 33.9577V29.2567Z" fill="#FF4306"/>
<path d="M23.6279 12.0988C23.8585 11.9671 24.1415 11.9671 24.3721 12.0988L29.9971 15.3131C30.2308 15.4466 30.375 15.6951 30.375 15.9643V21.9576L35.6221 24.956C35.8558 25.0895 36 25.338 36 25.6071V32.0357C36 32.3049 35.8558 32.5534 35.6221 32.6869L29.9971 35.9012C29.7665 36.0329 29.4835 36.0329 29.2529 35.9012L24 32.8995L18.7471 35.9012C18.5165 36.0329 18.2335 36.0329 18.0029 35.9012L12.3779 32.6869C12.1442 32.5534 12 32.3049 12 32.0357V25.6071C12 25.338 12.1442 25.0895 12.3779 24.956L17.625 21.9576V15.9643C17.625 15.6951 17.7692 15.4466 18.0029 15.3131L23.6279 12.0988ZM18.375 23.2567L14.2617 25.6071L18.375 27.9576L22.4883 25.6071L18.375 23.2567ZM23.25 26.8996L19.125 29.2567V33.9577L23.25 31.6005V26.8996ZM24.75 31.6005L28.875 33.9576V29.2567L24.75 26.8995V31.6005ZM25.5117 25.6071L29.625 27.9576L33.7383 25.6071L29.625 23.2567L25.5117 25.6071ZM28.875 21.9577V17.2567L24.75 19.6139V24.3148L28.875 21.9577ZM23.25 24.3148V19.6138L19.125 17.2567V21.9576L23.25 24.3148ZM19.8867 15.9643L24 18.3148L28.1133 15.9643L24 13.6138L19.8867 15.9643ZM34.5 26.8996L30.375 29.2567V33.9577L34.5 31.6005V26.8996ZM17.625 33.9576V29.2567L13.5 26.8995V31.6005L17.625 33.9576Z" fill="#161616"/>
</svg>
