<svg width="48" height="48" viewBox="0 0 48 48" fill="none" xmlns="http://www.w3.org/2000/svg">
<path fill-rule="evenodd" clip-rule="evenodd" d="M18 13.5H30C30.8284 13.5 31.5 14.1716 31.5 15V33C31.5 33.8284 30.8284 34.5 30 34.5H18C17.1716 34.5 16.5 33.8284 16.5 33V15C16.5 14.1716 17.1716 13.5 18 13.5ZM19.5 18C19.0858 18 18.75 18.3358 18.75 18.75C18.75 19.1642 19.0858 19.5 19.5 19.5H28.5C28.9142 19.5 29.25 19.1642 29.25 18.75C29.25 18.3358 28.9142 18 28.5 18H19.5ZM18.75 21.75C18.75 21.3358 19.0858 21 19.5 21H28.5C28.9142 21 29.25 21.3358 29.25 21.75C29.25 22.1642 28.9142 22.5 28.5 22.5H19.5C19.0858 22.5 18.75 22.1642 18.75 21.75ZM18.75 24.75C18.75 24.3358 19.0858 24 19.5 24H28.5C28.9142 24 29.25 24.3358 29.25 24.75C29.25 25.1642 28.9142 25.5 28.5 25.5H19.5C19.0858 25.5 18.75 25.1642 18.75 24.75ZM19.5 27C19.0858 27 18.75 27.3358 18.75 27.75C18.75 28.1642 19.0858 28.5 19.5 28.5H24C24.4142 28.5 24.75 28.1642 24.75 27.75C24.75 27.3358 24.4142 27 24 27H19.5Z" fill="#FF4306"/>
<path d="M19.5 18C19.0858 18 18.75 18.3358 18.75 18.75C18.75 19.1642 19.0858 19.5 19.5 19.5H28.5C28.9142 19.5 29.25 19.1642 29.25 18.75C29.25 18.3358 28.9142 18 28.5 18H19.5Z" fill="#161616"/>
<path d="M18.75 21.75C18.75 21.3358 19.0858 21 19.5 21H28.5C28.9142 21 29.25 21.3358 29.25 21.75C29.25 22.1642 28.9142 22.5 28.5 22.5H19.5C19.0858 22.5 18.75 22.1642 18.75 21.75Z" fill="#161616"/>
<path d="M19.5 24C19.0858 24 18.75 24.3358 18.75 24.75C18.75 25.1642 19.0858 25.5 19.5 25.5H28.5C28.9142 25.5 29.25 25.1642 29.25 24.75C29.25 24.3358 28.9142 24 28.5 24H19.5Z" fill="#161616"/>
<path d="M19.5 27C19.0858 27 18.75 27.3358 18.75 27.75C18.75 28.1642 19.0858 28.5 19.5 28.5H24C24.4142 28.5 24.75 28.1642 24.75 27.75C24.75 27.3358 24.4142 27 24 27H19.5Z" fill="#161616"/>
<path d="M15 15C15 13.3431 16.3431 12 18 12H30C31.6569 12 33 13.3431 33 15V33C33 34.6569 31.6569 36 30 36H18C16.3431 36 15 34.6569 15 33V15ZM30 13.5H18C17.1716 13.5 16.5 14.1716 16.5 15V33C16.5 33.8284 17.1716 34.5 18 34.5H30C30.8284 34.5 31.5 33.8284 31.5 33V15C31.5 14.1716 30.8284 13.5 30 13.5Z" fill="#161616"/>
</svg>
