<svg width="48" height="48" viewBox="0 0 48 48" fill="none" xmlns="http://www.w3.org/2000/svg">
<path fill-rule="evenodd" clip-rule="evenodd" d="M27 30.75C27 31.1642 26.6642 31.5 26.25 31.5H14.25C13.8358 31.5 13.5 31.1642 13.5 30.75L13.5 17.25C13.5 16.8358 13.8358 16.5 14.25 16.5L26.25 16.5C26.6642 16.5 27 16.8358 27 17.25V20.25C27 20.6642 27.3358 21 27.75 21C28.1642 21 28.5 20.6642 28.5 20.25V17.25C28.5 16.0074 27.4926 15 26.25 15L14.25 15C13.0074 15 12 16.0074 12 17.25L12 30.75C12 31.9926 13.0074 33 14.25 33H26.25C27.4926 33 28.5 31.9926 28.5 30.75V27.75C28.5 27.3358 28.1642 27 27.75 27C27.3358 27 27 27.3358 27 27.75V30.75Z" fill="#161616"/>
<path fill-rule="evenodd" clip-rule="evenodd" d="M35.7803 24.5303C36.0732 24.2374 36.0732 23.7626 35.7803 23.4697L31.2803 18.9697C30.9874 18.6768 30.5126 18.6768 30.2197 18.9697C29.9268 19.2626 29.9268 19.7374 30.2197 20.0303L33.4393 23.25L20.25 23.25C19.8358 23.25 19.5 23.5858 19.5 24C19.5 24.4142 19.8358 24.75 20.25 24.75L33.4393 24.75L30.2197 27.9697C29.9268 28.2626 29.9268 28.7374 30.2197 29.0303C30.5126 29.3232 30.9874 29.3232 31.2803 29.0303L35.7803 24.5303Z" fill="#161616"/>
</svg>
