<svg width="48" height="48" viewBox="0 0 48 48" fill="none" xmlns="http://www.w3.org/2000/svg">
<path d="M15.25 14L14 15.25L16.7511 19.1015C16.9857 19.43 17.3646 19.625 17.7683 19.625H17.8572C18.1888 19.625 18.5067 19.7567 18.7411 19.9911L22.0849 23.3349L18.8137 26.653C18.4765 26.5534 18.1195 26.5 17.75 26.5C15.6789 26.5 14 28.1789 14 30.25C14 32.3211 15.6789 34 17.75 34C19.8211 34 21.5 32.3211 21.5 30.25C21.5 29.8805 21.4466 29.5235 21.347 29.1863L24.6651 25.9151L25.875 27.125L25.4943 28.2671C25.3446 28.7163 25.4615 29.2115 25.7963 29.5463L29.8839 33.6339C30.128 33.878 30.4479 34 30.7678 34C31.0877 34 31.4076 33.878 31.6516 33.6339L33.6339 31.6517C33.878 31.4076 34 31.0877 34 30.7678C34 30.4479 33.878 30.128 33.6339 29.8839L29.5463 25.7963C29.2115 25.4615 28.7163 25.3446 28.2671 25.4943L27.125 25.875L25.9241 24.6741L29.2739 21.3717C29.5851 21.4554 29.9124 21.5 30.25 21.5C32.3211 21.5 34 19.8211 34 17.75C34 17.4141 33.9558 17.0885 33.873 16.7787L31.1967 19.455L29 19L28.545 16.8033L31.2213 14.127C30.9115 14.0442 30.5859 14 30.25 14C28.1789 14 26.5 15.6789 26.5 17.75C26.5 18.0877 26.5446 18.4149 26.6283 18.7261L23.3259 22.0759L19.9911 18.7411C19.7567 18.5067 19.625 18.1888 19.625 17.8572V17.7683C19.625 17.3646 19.43 16.9857 19.1015 16.7511L15.25 14ZM27.3081 27.3081C27.5521 27.064 27.9479 27.064 28.1919 27.3081L31.8347 30.9508C32.0788 31.1949 32.0788 31.5906 31.8347 31.8347C31.5906 32.0788 31.1949 32.0788 30.9508 31.8347L27.3081 28.1919C27.064 27.9479 27.064 27.5521 27.3081 27.3081ZM17.75 27.75L18.3388 28.0525L19 28.0849L19.3587 28.6413L19.9151 29L19.9475 29.6612L20.25 30.25L19.9475 30.8388L19.9151 31.5L19.3587 31.8586L19 32.415L18.3388 32.4475L17.75 32.75L17.1612 32.4475L16.5 32.415L16.1413 31.8586L15.5849 31.5L15.5525 30.8388L15.25 30.25L15.5525 29.6612L15.5849 29L16.1413 28.6413L16.5 28.0849L17.1612 28.0525L17.75 27.75Z" fill="#161616"/>
</svg>
