<svg width="48" height="48" viewBox="0 0 48 48" fill="none" xmlns="http://www.w3.org/2000/svg">
<path fill-rule="evenodd" clip-rule="evenodd" d="M23.9999 34.5015C29.3792 34.5015 33.74 30.1407 33.74 24.7614C33.74 19.3822 29.3792 15.0214 23.9999 15.0214C18.6207 15.0214 14.2599 19.3822 14.2599 24.7614C14.2599 30.1407 18.6207 34.5015 23.9999 34.5015ZM29.8277 18.9092L22.4107 23.1475L18.1724 30.5645L25.5894 26.3262L29.8277 18.9092Z" fill="#FF4306"/>
<path d="M23.9999 36C30.2068 36 35.2384 30.9684 35.2384 24.7615C35.2384 19.5717 31.7205 15.2034 26.9393 13.9113C26.9768 13.7802 26.9969 13.6417 26.9969 13.4985C26.9969 12.6709 26.326 12 25.4984 12H22.5015C21.6739 12 21.003 12.6709 21.003 13.4985C21.003 13.6417 21.0231 13.7802 21.0606 13.9113C16.2793 15.2035 12.7615 19.5717 12.7615 24.7615C12.7615 30.9684 17.7931 36 23.9999 36ZM33.74 24.7614C33.74 30.1407 29.3792 34.5015 23.9999 34.5015C18.6207 34.5015 14.2599 30.1407 14.2599 24.7614C14.2599 19.3822 18.6207 15.0214 23.9999 15.0214C29.3792 15.0214 33.74 19.3822 33.74 24.7614Z" fill="#161616"/>
<path d="M22.4107 23.1475L29.8277 18.9092L25.5894 26.3262L18.1724 30.5645L22.4107 23.1475Z" fill="#161616"/>
</svg>
