<svg width="48" height="48" viewBox="0 0 48 48" fill="none" xmlns="http://www.w3.org/2000/svg">
<path d="M33 17.25C33 16.8358 32.6642 16.5 32.25 16.5H15.75C15.3358 16.5 15 16.8358 15 17.25V28.5H33V17.25Z" fill="#FF4306"/>
<path d="M32.25 16.5C32.6642 16.5 33 16.8358 33 17.25V28.5H15V17.25C15 16.8358 15.3358 16.5 15.75 16.5H32.25ZM15.75 15C14.5074 15 13.5 16.0074 13.5 17.25V30H34.5V17.25C34.5 16.0074 33.4926 15 32.25 15H15.75Z" fill="#161616"/>
<path d="M12 30.75H36C36 31.9926 34.9926 33 33.75 33H14.25C13.0074 33 12 31.9926 12 30.75Z" fill="#161616"/>
</svg>
