<svg width="48" height="48" viewBox="0 0 48 48" fill="none" xmlns="http://www.w3.org/2000/svg">
<path fill-rule="evenodd" clip-rule="evenodd" d="M19.5 24C17.8433 24 16.5 25.3432 16.5 27V28.5H15C14.1716 28.5 13.5 27.8285 13.5 27V22.5C13.5 21.6715 14.1716 21 15 21H33C33.8284 21 34.5 21.6715 34.5 22.5V27C34.5 27.8285 33.8284 28.5 33 28.5H31.5V27C31.5 25.3432 30.1567 24 28.5 24H19.5ZM15.75 24.75C16.5784 24.75 17.25 24.0784 17.25 23.25C17.25 22.4216 16.5784 21.75 15.75 21.75C14.9216 21.75 14.25 22.4216 14.25 23.25C14.25 24.0784 14.9216 24.75 15.75 24.75Z" fill="#FF4306"/>
<path fill-rule="evenodd" clip-rule="evenodd" d="M16.5 16.5C16.5 14.8432 17.8433 13.5 19.5 13.5H28.5C30.1567 13.5 31.5 14.8432 31.5 16.5V19.5H33C34.6567 19.5 36 20.8432 36 22.5V27C36 28.6568 34.6567 30 33 30H31.5V31.5C31.5 33.1568 30.1567 34.5 28.5 34.5H19.5C17.8433 34.5 16.5 33.1568 16.5 31.5V30H15C13.3433 30 12 28.6568 12 27V22.5C12 20.8432 13.3433 19.5 15 19.5H16.5V16.5ZM19.5 15C18.6716 15 18 15.6715 18 16.5V19.5H30V16.5C30 15.6715 29.3284 15 28.5 15H19.5ZM16.5 27C16.5 25.3432 17.8433 24 19.5 24H28.5C30.1567 24 31.5 25.3432 31.5 27V28.5H33C33.8284 28.5 34.5 27.8285 34.5 27V22.5C34.5 21.6715 33.8284 21 33 21H15C14.1716 21 13.5 21.6715 13.5 22.5V27C13.5 27.8285 14.1716 28.5 15 28.5H16.5V27ZM30 31.5V27C30 26.1715 29.3284 25.5 28.5 25.5H19.5C18.6716 25.5 18 26.1715 18 27V31.5C18 32.3285 18.6716 33 19.5 33H28.5C29.3284 33 30 32.3285 30 31.5Z" fill="#161616"/>
<path d="M17.25 23.25C17.25 24.0784 16.5784 24.75 15.75 24.75C14.9216 24.75 14.25 24.0784 14.25 23.25C14.25 22.4216 14.9216 21.75 15.75 21.75C16.5784 21.75 17.25 22.4216 17.25 23.25Z" fill="#161616"/>
</svg>
