<svg width="48" height="48" viewBox="0 0 48 48" fill="none" xmlns="http://www.w3.org/2000/svg">
<path d="M16.5 27V30H19.5V27H16.5Z" fill="#FF4306"/>
<path d="M18 34.5H19.5V31.5H16.5V33C16.5 33.8284 17.1716 34.5 18 34.5Z" fill="#FF4306"/>
<path d="M25.5 31.5H21V34.5H25.5V31.5Z" fill="#FF4306"/>
<path d="M31.5 31.5H27V34.5H30C30.8284 34.5 31.5 33.8284 31.5 33V31.5Z" fill="#FF4306"/>
<path d="M27 30H31.5V27H27V30Z" fill="#FF4306"/>
<path d="M21 27V30H25.5V27H21Z" fill="#FF4306"/>
<path d="M33 33V18.75L26.25 12H18C16.3431 12 15 13.3431 15 15V33C15 34.6569 16.3431 36 18 36H30C31.6569 36 33 34.6569 33 33ZM26.25 16.5C26.25 17.7426 27.2574 18.75 28.5 18.75H31.5V25.5H16.5V15C16.5 14.1716 17.1716 13.5 18 13.5H26.25V16.5ZM16.5 30V27H19.5V30H16.5ZM16.5 31.5H19.5V34.5H18C17.1716 34.5 16.5 33.8284 16.5 33V31.5ZM21 34.5V31.5H25.5V34.5H21ZM27 34.5V31.5H31.5V33C31.5 33.8284 30.8284 34.5 30 34.5H27ZM31.5 30H27V27H31.5V30ZM21 30V27H25.5V30H21Z" fill="#161616"/>
</svg>
