<svg width="48" height="48" viewBox="0 0 48 48" fill="none" xmlns="http://www.w3.org/2000/svg">
<path d="M17.9512 12.9143C17.6704 12.6731 17.1996 12.6983 16.9833 12.9844C15.7287 14.644 15 16.6239 15 18.75C15 20.8761 15.7287 22.856 16.9833 24.5156C17.1996 24.8017 17.6704 24.8269 17.9512 24.5857C18.1756 24.393 18.2068 24.0872 18.0357 23.8576C16.9367 22.3833 16.2995 20.6305 16.2995 18.75C16.2995 16.8695 16.9367 15.1167 18.0357 13.6424C18.2068 13.4128 18.1756 13.107 17.9512 12.9143Z" fill="#161616"/>
<path d="M22.5 18.75C22.5 19.5784 23.1716 20.25 24 20.25C24.8284 20.25 25.5 19.5784 25.5 18.75C25.5 17.9216 24.8284 17.25 24 17.25C23.1716 17.25 22.5 17.9216 22.5 18.75Z" fill="#161616"/>
<path d="M19.8138 15.4623C20.0024 15.1443 20.4941 15.0981 20.7879 15.3505L20.8075 15.3673C21.0159 15.5463 21.055 15.8222 20.9252 16.0494C20.4595 16.8644 20.1981 17.781 20.1981 18.75C20.1981 19.719 20.4595 20.6356 20.9252 21.4506C21.055 21.6778 21.0159 21.9537 20.8075 22.1327L20.7879 22.1495C20.4941 22.4019 20.0024 22.3557 19.8138 22.0377C19.2285 21.0508 18.8985 19.9335 18.8985 18.75C18.8985 17.5665 19.2285 16.4492 19.8138 15.4623Z" fill="#161616"/>
<path d="M30.0488 12.9143C30.3296 12.6731 30.8004 12.6983 31.0167 12.9844C32.2713 14.644 33 16.6239 33 18.75C33 20.8761 32.2713 22.856 31.0167 24.5156C30.8004 24.8017 30.3296 24.8269 30.0488 24.5857C29.8244 24.393 29.7932 24.0872 29.9643 23.8576C31.0633 22.3833 31.7005 20.6305 31.7005 18.75C31.7005 16.8695 31.0633 15.1167 29.9643 13.6424C29.7932 13.4128 29.8244 13.107 30.0488 12.9143Z" fill="#161616"/>
<path d="M28.1862 15.4623C27.9976 15.1443 27.5059 15.0981 27.2121 15.3505L27.1925 15.3673C26.9841 15.5463 26.945 15.8222 27.0748 16.0494C27.5405 16.8644 27.8019 17.781 27.8019 18.75C27.8019 19.719 27.5405 20.6356 27.0748 21.4506C26.945 21.6778 26.9841 21.9537 27.1925 22.1327L27.2121 22.1495C27.5059 22.4019 27.9976 22.3557 28.1862 22.0377C28.7715 21.0508 29.1015 19.9335 29.1015 18.75C29.1015 17.5665 28.7715 16.4492 28.1862 15.4623Z" fill="#161616"/>
<path d="M12 27.75C12 26.9216 12.6716 26.25 13.5 26.25H34.5C35.3284 26.25 36 26.9216 36 27.75V35.25H12V27.75Z" fill="#161616"/>
<path d="M13.5 28.5C13.5 28.0858 13.8358 27.75 14.25 27.75H33.75C34.1642 27.75 34.5 28.0858 34.5 28.5V33.75H13.5V28.5Z" fill="#FF4306"/>
<path d="M30 30.75C30 29.9216 30.6716 29.25 31.5 29.25C32.3284 29.25 33 29.9216 33 30.75C33 31.5784 32.3284 32.25 31.5 32.25C30.6716 32.25 30 31.5784 30 30.75Z" fill="#161616"/>
<path d="M25.5 30.75C25.5 29.9216 26.1716 29.25 27 29.25C27.8284 29.25 28.5 29.9216 28.5 30.75C28.5 31.5784 27.8284 32.25 27 32.25C26.1716 32.25 25.5 31.5784 25.5 30.75Z" fill="#161616"/>
</svg>
