<svg width="48" height="48" viewBox="0 0 48 48" fill="none" xmlns="http://www.w3.org/2000/svg">
<path d="M24 13.6C19.5817 13.6 16 17.1817 16 21.6V23.2H17.6C18.4837 23.2 19.2 23.9163 19.2 24.8V29.6C19.2 30.4837 18.4837 31.2 17.6 31.2H16C15.1164 31.2 14.4 30.4837 14.4 29.6V21.6C14.4 16.2981 18.6981 12 24 12C29.302 12 33.6 16.2981 33.6 21.6V31.2C33.6 33.4091 31.8092 35.2 29.6 35.2H26.186C25.9093 35.6782 25.3923 36 24.8 36H23.2C22.3164 36 21.6 35.2837 21.6 34.4C21.6 33.5163 22.3164 32.8 23.2 32.8H24.8C25.3923 32.8 25.9093 33.1218 26.186 33.6H29.6C30.9255 33.6 32 32.5255 32 31.2H30.4C29.5164 31.2 28.8 30.4837 28.8 29.6V24.8C28.8 23.9163 29.5164 23.2 30.4 23.2H32V21.6C32 17.1817 28.4183 13.6 24 13.6Z" fill="#161616"/>
</svg>
