<svg width="48" height="48" viewBox="0 0 48 48" fill="none" xmlns="http://www.w3.org/2000/svg">
<path fill-rule="evenodd" clip-rule="evenodd" d="M16.5 33C16.5 33.8284 17.1716 34.5 18 34.5H30C30.8284 34.5 31.5 33.8284 31.5 33L31.5 15C31.5 14.1716 30.8284 13.5 30 13.5L18 13.5C17.1716 13.5 16.5 14.1716 16.5 15L16.5 33ZM22.5 16.5C22.5 15.6716 23.1716 15 24 15C24.8284 15 25.5 15.6716 25.5 16.5C25.5 17.3284 24.8284 18 24 18C23.1716 18 22.5 17.3284 22.5 16.5Z" fill="#FF4306"/>
<path d="M18 34.5C17.1716 34.5 16.5 33.8284 16.5 33L16.5 15C16.5 14.1716 17.1716 13.5 18 13.5L30 13.5C30.8284 13.5 31.5 14.1716 31.5 15L31.5 33C31.5 33.8284 30.8284 34.5 30 34.5H18ZM30 36C31.6569 36 33 34.6569 33 33V15C33 13.3431 31.6569 12 30 12L18 12C16.3431 12 15 13.3431 15 15L15 33C15 34.6569 16.3431 36 18 36H30Z" fill="#161616"/>
<path d="M24 15C23.1716 15 22.5 15.6716 22.5 16.5C22.5 17.3284 23.1716 18 24 18C24.8284 18 25.5 17.3284 25.5 16.5C25.5 15.6716 24.8284 15 24 15Z" fill="#161616"/>
</svg>
