<svg width="156" height="88" viewBox="0 0 156 88" fill="none" xmlns="http://www.w3.org/2000/svg">
<rect x="0.5" y="0.5" width="155" height="87" rx="4.5" stroke="#9747FF" stroke-dasharray="10 5"/>
<path d="M33.5 44C33.5 47.3137 36.1863 50 39.5 50C42.8137 50 45.5 47.3137 45.5 44C45.5 40.6863 42.8137 38 39.5 38C36.1863 38 33.5 40.6863 33.5 44Z" fill="#FF4306"/>
<path d="M48.5 38C51.8137 38 54.5 40.6863 54.5 44C54.5 47.3137 51.8137 50 48.5 50H44.0007C45.822 48.6317 47 46.4534 47 44C47 41.5466 45.822 39.3683 44.0007 38H48.5ZM39.5 50C36.1863 50 33.5 47.3137 33.5 44C33.5 40.6863 36.1863 38 39.5 38C42.8137 38 45.5 40.6863 45.5 44C45.5 47.3137 42.8137 50 39.5 50ZM32 44C32 48.1421 35.3579 51.5 39.5 51.5H48.5C52.6421 51.5 56 48.1421 56 44C56 39.8579 52.6421 36.5 48.5 36.5H39.5C35.3579 36.5 32 39.8579 32 44Z" fill="#161616"/>
<path d="M110.5 44C110.5 47.3137 113.186 50 116.5 50C119.814 50 122.5 47.3137 122.5 44C122.5 40.6863 119.814 38 116.5 38C113.186 38 110.5 40.6863 110.5 44Z" fill="#FF4306"/>
<path d="M107.5 36.5C103.358 36.5 100 39.8579 100 44C100 48.1421 103.358 51.5 107.5 51.5H116.5C120.642 51.5 124 48.1421 124 44C124 39.8579 120.642 36.5 116.5 36.5H107.5ZM116.5 50C113.186 50 110.5 47.3137 110.5 44C110.5 40.6863 113.186 38 116.5 38C119.814 38 122.5 40.6863 122.5 44C122.5 47.3137 119.814 50 116.5 50Z" fill="#161616"/>
</svg>
