<svg width="48" height="48" viewBox="0 0 48 48" fill="none" xmlns="http://www.w3.org/2000/svg">
<path fill-rule="evenodd" clip-rule="evenodd" d="M28.5 18.75C27.2574 18.75 26.25 17.7426 26.25 16.5V13.5H18C17.1716 13.5 16.5 14.1716 16.5 15V33C16.5 33.8284 17.1716 34.5 18 34.5H30C30.8284 34.5 31.5 33.8284 31.5 33V18.75H28.5ZM27.75 33C27.3358 33 27 32.6642 27 32.25V23.25C27 22.8358 27.3358 22.5 27.75 22.5H29.25C29.6642 22.5 30 22.8358 30 23.25V32.25C30 32.6642 29.6642 33 29.25 33H27.75ZM22.5 32.25C22.5 32.6642 22.8358 33 23.25 33H24.75C25.1642 33 25.5 32.6642 25.5 32.25V26.25C25.5 25.8358 25.1642 25.5 24.75 25.5H23.25C22.8358 25.5 22.5 25.8358 22.5 26.25V32.25ZM18.75 33C18.3358 33 18 32.6642 18 32.25V29.25C18 28.8358 18.3358 28.5 18.75 28.5H20.25C20.6642 28.5 21 28.8358 21 29.25V32.25C21 32.6642 20.6642 33 20.25 33H18.75Z" fill="#FF4306"/>
<path d="M27 32.25C27 32.6642 27.3358 33 27.75 33H29.25C29.6642 33 30 32.6642 30 32.25V23.25C30 22.8358 29.6642 22.5 29.25 22.5H27.75C27.3358 22.5 27 22.8358 27 23.25V32.25Z" fill="#161616"/>
<path d="M23.25 33C22.8358 33 22.5 32.6642 22.5 32.25V26.25C22.5 25.8358 22.8358 25.5 23.25 25.5H24.75C25.1642 25.5 25.5 25.8358 25.5 26.25V32.25C25.5 32.6642 25.1642 33 24.75 33H23.25Z" fill="#161616"/>
<path d="M18.75 33C18.3358 33 18 32.6642 18 32.25V29.25C18 28.8358 18.3358 28.5 18.75 28.5H20.25C20.6642 28.5 21 28.8358 21 29.25V32.25C21 32.6642 20.6642 33 20.25 33H18.75Z" fill="#161616"/>
<path d="M33 33V18.75L26.25 12H18C16.3431 12 15 13.3431 15 15V33C15 34.6569 16.3431 36 18 36H30C31.6569 36 33 34.6569 33 33ZM26.25 16.5C26.25 17.7426 27.2574 18.75 28.5 18.75H31.5V33C31.5 33.8284 30.8284 34.5 30 34.5H18C17.1716 34.5 16.5 33.8284 16.5 33V15C16.5 14.1716 17.1716 13.5 18 13.5H26.25V16.5Z" fill="#161616"/>
</svg>
