<svg width="48" height="48" viewBox="0 0 48 48" fill="none" xmlns="http://www.w3.org/2000/svg">
<path d="M29.4185 15.7305C27.423 15.5292 25.7304 15.8251 24.75 16.858V31.4768C26.1523 30.6817 27.929 30.5726 29.569 30.738C31.3396 30.9166 33.1234 31.4297 34.5 31.9545V17.0693C33.1725 16.5147 31.2692 15.9171 29.4185 15.7305Z" fill="#FF4306"/>
<path d="M13.5 17.0693C14.8275 16.5147 16.7308 15.9171 18.5815 15.7305C20.577 15.5292 22.2696 15.8251 23.25 16.858V31.4768C21.8477 30.6818 20.071 30.5726 18.431 30.7381C16.6604 30.9166 14.8766 31.4297 13.5 31.9545V17.0693ZM24.75 16.858C25.7304 15.8251 27.423 15.5292 29.4185 15.7305C31.2692 15.9171 33.1725 16.5147 34.5 17.0693V31.9545C33.1234 31.4297 31.3396 30.9166 29.569 30.738C27.929 30.5726 26.1523 30.6817 24.75 31.4768V16.858ZM24 15.5026C22.5226 14.2327 20.3802 14.0414 18.431 14.238C16.1598 14.4671 13.8669 15.2465 12.4396 15.8952C12.1719 16.0169 12 16.2839 12 16.578V33.078C12 33.333 12.1296 33.5705 12.344 33.7086C12.5584 33.8467 12.8282 33.8663 13.0604 33.7608C14.3831 33.1595 16.5152 32.4389 18.5815 32.2305C20.6935 32.0175 22.4662 32.3613 23.4143 33.5465C23.5567 33.7244 23.7722 33.828 24 33.828C24.2278 33.828 24.4433 33.7244 24.5857 33.5465C25.5338 32.3613 27.3065 32.0175 29.4185 32.2305C31.4848 32.4389 33.6169 33.1595 34.9396 33.7608C35.1718 33.8663 35.4416 33.8467 35.656 33.7086C35.8704 33.5705 36 33.333 36 33.078V16.578C36 16.2839 35.8281 16.0169 35.5604 15.8952C34.1331 15.2465 31.8402 14.4671 29.569 14.238C27.6198 14.0414 25.4774 14.2327 24 15.5026Z" fill="#161616"/>
</svg>
