<svg width="48" height="48" viewBox="0 0 48 48" fill="none" xmlns="http://www.w3.org/2000/svg">
<path fill-rule="evenodd" clip-rule="evenodd" d="M13.5 15H34.5V33H13.5V15ZM18 18C17.1716 18 16.5 18.6716 16.5 19.5V24C16.5 24.8284 17.1716 25.5 18 25.5H22.5C23.3284 25.5 24 24.8284 24 24V19.5C24 18.6716 23.3284 18 22.5 18H18ZM27 18.75C26.5858 18.75 26.25 19.0858 26.25 19.5C26.25 19.9142 26.5858 20.25 27 20.25H31.5C31.9142 20.25 32.25 19.9142 32.25 19.5C32.25 19.0858 31.9142 18.75 31.5 18.75H27ZM27 23.25C26.5858 23.25 26.25 23.5858 26.25 24C26.25 24.4142 26.5858 24.75 27 24.75H31.5C31.9142 24.75 32.25 24.4142 32.25 24C32.25 23.5858 31.9142 23.25 31.5 23.25H27ZM17.25 28.5C16.8358 28.5 16.5 28.8358 16.5 29.25C16.5 29.6642 16.8358 30 17.25 30H31.5C31.9142 30 32.25 29.6642 32.25 29.25C32.25 28.8358 31.9142 28.5 31.5 28.5H17.25Z" fill="#FF4306"/>
<path fill-rule="evenodd" clip-rule="evenodd" d="M12 15C12 14.1716 12.6716 13.5 13.5 13.5H34.5C35.3284 13.5 36 14.1716 36 15V33C36 33.8284 35.3284 34.5 34.5 34.5H13.5C12.6716 34.5 12 33.8284 12 33V15ZM34.5 15H13.5V33H34.5V15ZM16.5 19.5C16.5 18.6716 17.1716 18 18 18H22.5C23.3284 18 24 18.6716 24 19.5V24C24 24.8284 23.3284 25.5 22.5 25.5H18C17.1716 25.5 16.5 24.8284 16.5 24V19.5ZM22.5 19.5H18V24H22.5V19.5ZM26.25 19.5C26.25 19.0858 26.5858 18.75 27 18.75H31.5C31.9142 18.75 32.25 19.0858 32.25 19.5C32.25 19.9142 31.9142 20.25 31.5 20.25H27C26.5858 20.25 26.25 19.9142 26.25 19.5ZM26.25 24C26.25 23.5858 26.5858 23.25 27 23.25H31.5C31.9142 23.25 32.25 23.5858 32.25 24C32.25 24.4142 31.9142 24.75 31.5 24.75H27C26.5858 24.75 26.25 24.4142 26.25 24ZM16.5 29.25C16.5 28.8358 16.8358 28.5 17.25 28.5H31.5C31.9142 28.5 32.25 28.8358 32.25 29.25C32.25 29.6642 31.9142 30 31.5 30H17.25C16.8358 30 16.5 29.6642 16.5 29.25Z" fill="#161616"/>
</svg>
