<svg width="24" height="24" viewBox="0 0 24 24" fill="none" xmlns="http://www.w3.org/2000/svg">
<path d="M5.25 0C5.66421 0 6 0.335786 6 0.75V1.5H18V0.75C18 0.335786 18.3358 0 18.75 0C19.1642 0 19.5 0.335786 19.5 0.75V1.5H21C22.6569 1.5 24 2.84315 24 4.5V21C24 22.6569 22.6569 24 21 24H3C1.34315 24 0 22.6569 0 21V4.5C0 2.84315 1.34315 1.5 3 1.5H4.5V0.75C4.5 0.335786 4.83579 0 5.25 0ZM3 3C2.17157 3 1.5 3.67157 1.5 4.5V21C1.5 21.8284 2.17157 22.5 3 22.5H21C21.8284 22.5 22.5 21.8284 22.5 21V4.5C22.5 3.67157 21.8284 3 21 3H3Z" fill="#161616"/>
<path d="M3.75 6C3.75 5.58579 4.08579 5.25 4.5 5.25H19.5C19.9142 5.25 20.25 5.58579 20.25 6V7.5C20.25 7.91421 19.9142 8.25 19.5 8.25H4.5C4.08579 8.25 3.75 7.91421 3.75 7.5V6Z" fill="#161616"/>
<path d="M16.5 11.25C16.5 10.8358 16.8358 10.5 17.25 10.5H18.75C19.1642 10.5 19.5 10.8358 19.5 11.25V12.75C19.5 13.1642 19.1642 13.5 18.75 13.5H17.25C16.8358 13.5 16.5 13.1642 16.5 12.75V11.25Z" fill="#161616"/>
<path d="M12 11.25C12 10.8358 12.3358 10.5 12.75 10.5H14.25C14.6642 10.5 15 10.8358 15 11.25V12.75C15 13.1642 14.6642 13.5 14.25 13.5H12.75C12.3358 13.5 12 13.1642 12 12.75V11.25Z" fill="#161616"/>
<path d="M4.5 15.75C4.5 15.3358 4.83579 15 5.25 15H6.75C7.16421 15 7.5 15.3358 7.5 15.75V17.25C7.5 17.6642 7.16421 18 6.75 18H5.25C4.83579 18 4.5 17.6642 4.5 17.25V15.75Z" fill="#161616"/>
<path d="M9 15.75C9 15.3358 9.33579 15 9.75 15H11.25C11.6642 15 12 15.3358 12 15.75V17.25C12 17.6642 11.6642 18 11.25 18H9.75C9.33579 18 9 17.6642 9 17.25V15.75Z" fill="#161616"/>
</svg>
