<svg width="48" height="48" viewBox="0 0 48 48" fill="none" xmlns="http://www.w3.org/2000/svg">
<path fill-rule="evenodd" clip-rule="evenodd" d="M33 16.5C33.8284 16.5 34.5 17.1716 34.5 18V30C34.5 30.8284 33.8284 31.5 33 31.5H15C14.1716 31.5 13.5 30.8284 13.5 30V18C13.5 17.1716 14.1716 16.5 15 16.5H33ZM21.4068 19.5831C21.6566 19.4546 21.9573 19.4764 22.1859 19.6397L27.4359 23.3897C27.633 23.5305 27.75 23.7578 27.75 24C27.75 24.2422 27.633 24.4695 27.4359 24.6103L22.1859 28.3603C21.9573 28.5236 21.6566 28.5454 21.4068 28.4169C21.157 28.2883 21 28.0309 21 27.75V20.25C21 19.9691 21.157 19.7117 21.4068 19.5831Z" fill="#FF4306"/>
<path d="M22.1859 19.6397C21.9573 19.4764 21.6566 19.4546 21.4068 19.5831C21.157 19.7117 21 19.9691 21 20.25V27.75C21 28.0309 21.157 28.2883 21.4068 28.4169C21.6566 28.5454 21.9573 28.5236 22.1859 28.3603L27.4359 24.6103C27.633 24.4695 27.75 24.2422 27.75 24C27.75 23.7578 27.633 23.5305 27.4359 23.3897L22.1859 19.6397Z" fill="#161616"/>
<path d="M12 18C12 16.3431 13.3431 15 15 15H33C34.6569 15 36 16.3431 36 18V30C36 31.6569 34.6569 33 33 33H15C13.3431 33 12 31.6569 12 30V18ZM34.5 18C34.5 17.1716 33.8284 16.5 33 16.5H15C14.1716 16.5 13.5 17.1716 13.5 18V30C13.5 30.8284 14.1716 31.5 15 31.5H33C33.8284 31.5 34.5 30.8284 34.5 30V18Z" fill="#161616"/>
</svg>
